<?xml version="1.0" encoding="UTF-8"?>
<svg xmlns="http://www.w3.org/2000/svg" width="1200" height="630" viewBox="0 0 1200 630" role="img" aria-labelledby="title desc">
  <title id="title">Eivitech Ibiza — transformaciones y reformas de propiedades</title>
  <desc id="desc">Imagen institucional para la vista previa del sitio Eivitech en WhatsApp y redes sociales.</desc>

  <defs>
    <linearGradient id="background" x1="0" y1="0" x2="1" y2="1">
      <stop offset="0" stop-color="#faf8f4" />
      <stop offset="0.68" stop-color="#f6f1e9" />
      <stop offset="1" stop-color="#efe3d2" />
    </linearGradient>
    <linearGradient id="footer" x1="0" y1="0" x2="1" y2="0">
      <stop offset="0" stop-color="#b78d54" />
      <stop offset="0.5" stop-color="#c79d62" />
      <stop offset="1" stop-color="#b78950" />
    </linearGradient>
  </defs>

  <rect width="1200" height="630" fill="url(#background)" />

  <!-- Watermark -->
  <g transform="translate(835 70) scale(1.18)" opacity="0.065">
    <path d="M 50 109 A 148 85 0 0 1 346 109 L 50 109 Z" fill="#BE965D" />
    <path d="M0 0 C13.53 0 27.06 0 41 0 C41 47.85 41 95.7 41 145 C97.43 145 153.86 145 212 145 C212 130.81 212 116.62 212 102 C170.09 102 128.18 102 85 102 C85 92.1 85 82.2 85 72 C126.91 72 168.82 72 212 72 C212 58.14 212 44.28 212 30 C170.09 30 128.18 30 85 30 C85 20.1 85 10.2 85 0 C139.45 0 193.9 0 250 0 C251.188 3.565 251.135 6.789 251.12 10.498 C251.121 10.883 251.121 10.883 251.123 12.832 C251.124 15.421 251.119 18.01 251.114 20.598 C251.113 22.451 251.113 24.304 251.114 26.156 C251.114 31.193 251.108 36.23 251.101 41.267 C251.095 46.528 251.095 51.789 251.093 57.05 C251.09 67.016 251.082 76.982 251.072 86.948 C251.061 98.292 251.055 109.637 251.05 120.981 C251.04 144.321 251.022 167.66 251 191 C248.76 192.131 246.518 193.259 244.276 194.386 C243.645 194.705 243.015 195.023 242.365 195.352 C225.764 203.686 206.437 208.951 188 211 C187.5 211.061 187.5 211.061 184.973 211.371 C140.338 215.753 93.391 202.332 58.41 174.156 C23.91 145.565 -0.648 106.162 -5.617 60.984 C-7.466 39.948 -4.833 20.539 0 0 Z" fill="#B3B3B3" transform="translate(30 151)" />
    <path d="M0 0 C13.53 0 27.06 0 41 0 C42.555 4.665 43.698 9.072 44.562 13.875 C44.688 14.544 44.814 15.213 44.943 15.902 C52.522 57.086 42.243 100.56 19.397 135.447 C16.135 140.132 12.64 144.604 9 149 C8.261 149.909 7.523 150.818 6.762 151.754 C3.508 155.628 3.508 155.628 2 157 C1.34 157 0.68 157 0 157 C0 105.19 0 53.38 0 0 Z" fill="#BE965D" transform="translate(325 151)" />
  </g>

  <!-- Official circular symbol -->
  <g transform="translate(90 77) scale(0.56)">
    <path d="M 50 109 A 148 85 0 0 1 346 109 L 50 109 Z" fill="#BE965D" />
    <path d="M0 0 C13.53 0 27.06 0 41 0 C41 47.85 41 95.7 41 145 C97.43 145 153.86 145 212 145 C212 130.81 212 116.62 212 102 C170.09 102 128.18 102 85 102 C85 92.1 85 82.2 85 72 C126.91 72 168.82 72 212 72 C212 58.14 212 44.28 212 30 C170.09 30 128.18 30 85 30 C85 20.1 85 10.2 85 0 C139.45 0 193.9 0 250 0 C251.188 3.565 251.135 6.789 251.12 10.498 C251.121 10.883 251.121 10.883 251.123 12.832 C251.124 15.421 251.119 18.01 251.114 20.598 C251.113 22.451 251.113 24.304 251.114 26.156 C251.114 31.193 251.108 36.23 251.101 41.267 C251.095 46.528 251.095 51.789 251.093 57.05 C251.09 67.016 251.082 76.982 251.072 86.948 C251.061 98.292 251.055 109.637 251.05 120.981 C251.04 144.321 251.022 167.66 251 191 C248.76 192.131 246.518 193.259 244.276 194.386 C243.645 194.705 243.015 195.023 242.365 195.352 C225.764 203.686 206.437 208.951 188 211 C187.5 211.061 187.5 211.061 184.973 211.371 C140.338 215.753 93.391 202.332 58.41 174.156 C23.91 145.565 -0.648 106.162 -5.617 60.984 C-7.466 39.948 -4.833 20.539 0 0 Z" fill="#B3B3B3" transform="translate(30 151)" />
    <path d="M0 0 C13.53 0 27.06 0 41 0 C42.555 4.665 43.698 9.072 44.562 13.875 C44.688 14.544 44.814 15.213 44.943 15.902 C52.522 57.086 42.243 100.56 19.397 135.447 C16.135 140.132 12.64 144.604 9 149 C8.261 149.909 7.523 150.818 6.762 151.754 C3.508 155.628 3.508 155.628 2 157 C1.34 157 0.68 157 0 157 C0 105.19 0 53.38 0 0 Z" fill="#BE965D" transform="translate(325 151)" />
  </g>

  <!-- Wordmark -->
  <text x="350" y="190" font-family="DejaVu Sans, Arial, sans-serif" font-size="92" font-weight="700" letter-spacing="-4">
    <tspan fill="#A7A7A7">EIVI</tspan><tspan fill="#BE965D">TECH</tspan>
  </text>
  <text x="354" y="247" font-family="DejaVu Sans, Arial, sans-serif" font-size="28" font-weight="300" letter-spacing="4" fill="#8F8B87">INSTALACIONES  |  REFORMAS</text>

  <line x1="90" y1="300" x2="1110" y2="300" stroke="#D0BEAA" stroke-width="2" />
  <circle cx="596" cy="300" r="6" fill="#BE965D" />

  <text x="90" y="388" font-family="DejaVu Sans, Arial, sans-serif" font-size="47" font-weight="700" fill="#27201B">Transformaciones y reformas</text>
  <text x="90" y="446" font-family="DejaVu Sans, Arial, sans-serif" font-size="47" font-weight="700" fill="#27201B">de propiedades en Ibiza</text>
  <text x="92" y="505" font-family="DejaVu Sans, Arial, sans-serif" font-size="25" font-weight="400" fill="#67605A">Reformas completas, interiores a medida y gestión integral del proyecto.</text>

  <rect x="0" y="574" width="1200" height="56" fill="url(#footer)" />
  <text x="90" y="611" font-family="DejaVu Sans, Arial, sans-serif" font-size="24" font-weight="700" fill="#FFFFFF">www.eivitech.com</text>
  <text x="840" y="611" font-family="DejaVu Sans, Arial, sans-serif" font-size="24" font-weight="700" fill="#FFFFFF">+34 674 735 188</text>
</svg>
