<?xml version="1.0" encoding="UTF-8"?>
<svg xmlns="http://www.w3.org/2000/svg" width="689" height="177" viewBox="0 0 689 177" role="img" aria-label="EIVITECH Instalaciones Reformas logo">
  <title>EIVITECH Instalaciones | Reformas</title>
  <g fill-rule="evenodd" clip-rule="evenodd">
    <path fill="#D89453" d="M 30 69.12 L 30.64 66 L 34.61 57 L 37.57 52 L 45.66 42 L 50 37.73 L 58 31.83 L 67 26.79 L 75 23.7 L 91 20.64 L 101 20.67 L 109 21.83 L 117 23.83 L 126 27.55 L 135 32.7 L 142.52 39 L 141 40.17 L 133 42.36 Z M 514 97.75 L 486 97.61 L 477 96.36 L 469 92.36 L 462.83 86 L 460.64 82 L 458.75 76 L 457.67 69 L 457.94 58 L 459.7 49 L 461.67 44 L 465.83 38 L 470 34.55 L 476 31.61 L 487 29.36 L 514 28.88 L 514.99 30 L 514.76 41 L 490 41.39 L 483 42.69 L 480 44.48 L 476.82 48 L 474.39 56 L 475 57.39 L 514 57.25 L 514.99 58 L 515.06 68 L 514 69.25 L 475 69.17 L 474.21 70 L 474.69 75 L 476.66 80 L 479.27 83 L 483 85.22 L 489 85.88 L 514.56 86 L 514.99 97 Z M 584 97.69 L 556 97.61 L 547 96.41 L 539 92.61 L 532.52 86 L 529.59 80 L 527.79 73 L 527.25 65 L 527.67 57 L 528.75 51 L 530.83 45 L 533.75 40 L 538 35.67 L 545 31.79 L 554 29.73 L 561 29.1 L 584.06 29 L 584.58 40 L 584 41.25 L 557 41.41 L 552 42.75 L 549 44.78 L 546.64 48 L 544.86 53 L 543.39 63 L 543.64 72 L 544.78 77 L 549 83.25 L 553 85.31 L 558 85.83 L 584 85.75 L 584.58 87 L 584.58 97 Z M 656 97.16 L 655 97.69 L 642 97.75 L 640.67 97 L 640.79 70 L 640 69.3 L 615 69.25 L 614 69.74 L 613.99 97 L 613 97.75 L 600 97.69 L 599.25 97 L 599.25 30 L 599.92 29 L 613 28.88 L 613.99 30 L 613.78 56 L 615 57.22 L 640.33 57 L 641 29.39 L 642 28.88 L 655 28.94 L 656 29.76 Z M 428 97.63 L 414 97.75 L 413.18 97 L 413.22 42 L 412 41.45 L 391 41.31 L 391 29.38 L 450 29.08 L 451.06 30 L 450.99 41 L 450 41.5 L 429 41.45 L 428.43 42 L 428.46 97 Z M 156 118.38 L 155 117.84 L 153.59 113 L 139.88 59 L 155 54.79 L 158.17 61 L 161.06 69 L 162.49 75 L 163.49 85 L 163.3 94 L 162.3 101 L 160.44 108 Z"/>
    <path fill="#2B211C" d="M 242 97.72 L 214 97.61 L 205 96.38 L 198 93.21 L 190.66 86 L 188.55 82 L 186.64 76 L 184.94 66 L 185.08 62 L 186.75 52 L 188.62 46 L 192.79 39 L 196 35.86 L 203 31.94 L 212 29.79 L 219 29.11 L 242.16 29 L 242.78 30 L 242.6 41 L 217 41.43 L 211 42.64 L 207.28 45 L 204.66 48 L 202.66 53 L 202.28 56 L 203 57.39 L 242 57.28 L 242.78 58 L 242.32 69 L 203 69.14 L 201.97 70 L 202.78 76 L 204.57 80 L 208 83.69 L 211 85.25 L 217 85.86 L 242.4 86 L 242.78 97 Z M 275 97.15 L 274 97.72 L 261 97.72 L 259.53 97 L 259.53 30 L 260 29.09 L 274 28.89 L 275.11 30 Z M 328 97.72 L 314 97.69 L 313 96.71 L 283.66 31 L 283.34 30 L 284 28.83 L 299 28.89 L 299.89 30 L 320 78.98 L 321 79.53 L 342 29.84 L 343 28.89 L 357.25 29 L 357.31 31 L 330.36 94 Z M 380 97.72 L 367 97.72 L 365.47 97 L 365.47 30 L 366 28.99 L 380 28.89 L 380.84 30 L 380.84 97 Z M 103 155.06 L 88 155.34 L 73 152.38 L 60 146.47 L 51 140.34 L 40.89 130 L 34.75 121 L 32.86 117 L 29.64 109 L 27.69 101 L 26.62 93 L 27 88.35 L 41 84.6 L 41.71 85 L 56 139.81 L 57 140.55 L 66 138.36 L 120 124.22 L 122.31 123 L 118.25 107 L 117 106.54 L 72 118.44 L 70 118.82 L 68.66 117 L 66.52 109 L 67 107.86 L 114.94 95 L 111.18 80 L 110 78.39 L 63 90.64 L 61.6 90 L 59.5 80 L 122 63.53 L 141.38 137 L 134 143.38 L 124 149.06 L 116 152.31 Z M 454 147.14 L 453 147.14 L 452.31 146 L 452.28 118 L 453 117.08 L 455 117.18 L 455.5 118 L 455.48 146 L 455 146.97 Z M 205 142.84 L 202 142.89 L 201.18 142 L 201.22 122 L 202 120.54 L 205.43 121 L 205.52 142 Z M 229 142.76 L 225 142.51 L 214 128.4 L 213.78 142 L 213 142.89 L 210 142.77 L 209.52 142 L 210 120.65 L 214 120.94 L 225 135.16 L 225.32 121 L 226 120.53 L 229.31 121 L 229.47 142 Z M 242 143.06 L 236 142.14 L 232.24 140 L 231.66 139 L 233 136.53 L 234 136.25 L 237 138.16 L 241 139.22 L 244 138.42 L 245.08 137 L 244 134.78 L 237 132.28 L 233.94 130 L 232.94 126 L 233.53 124 L 235.37 122 L 238 120.66 L 241 120.34 L 245 120.66 L 249 122.68 L 249.89 121 L 251 120.49 L 267 120.49 L 268.21 121 L 268 124.11 L 262 124.39 L 261.25 125 L 261.36 142 L 260 142.89 L 258 142.89 L 256.72 142 L 256.86 125 L 256 124.39 L 251 124.43 L 250 123.04 L 249 123.46 L 248 125.87 L 247 126.17 L 243 124.47 L 240 124.34 L 238.41 125 L 237.59 126 L 238.59 128 L 247 131.48 L 249.57 135 L 249.54 138 L 248 140.62 L 246 142.14 Z M 288 142.97 L 285 142.89 L 283.86 142 L 282 138.28 L 281 138.17 L 272 138.21 L 269 142.84 L 266 142.92 L 265.34 142 L 275 120.64 L 279.4 121 L 288.21 141 L 288.56 142 Z M 327 142.97 L 323 142.38 L 321.55 139 L 320 138.17 L 311 138.21 L 309.92 139 L 308 142.78 L 291 142.92 L 290.39 141 L 290.45 121 L 291 120.54 L 294.55 121 L 294.52 138 L 295 138.88 L 303 138.99 L 305 140.53 L 313.56 121 L 318 120.69 L 327.56 142 Z M 340 143.14 L 337 143.17 L 332 141.36 L 328.6 138 L 326.83 133 L 326.89 130 L 329 125.11 L 333 121.66 L 336 120.62 L 342 120.83 L 347.28 124 L 345 126.78 L 341 124.61 L 336 124.69 L 334 125.89 L 331.66 129 L 331.56 134 L 332.59 136 L 335 138.18 L 340 139.08 L 345 136.69 L 347.21 139 L 345 141.31 Z M 353 142.89 L 350 142.78 L 349.48 142 L 350 120.63 L 353 120.53 L 353.89 122 L 353.89 142 Z M 370 143.14 L 367 143.21 L 362 141.52 L 358.99 139 L 356.75 135 L 356.51 130 L 357.94 126 L 361 122.66 L 365 120.75 L 370 120.49 L 374 121.64 L 378.01 125 L 380.21 130 L 380.11 134 L 378.44 138 L 375 141.36 Z M 402 142.76 L 398 142.5 L 387 128.41 L 386.84 142 L 386 142.89 L 383 142.76 L 382.53 142 L 383 120.67 L 387 120.94 L 398 135.18 L 398.37 121 L 401 120.53 L 402.34 121 L 402.47 142 Z M 423 142.89 L 407 142.75 L 406.55 142 L 407 120.67 L 422 120.49 L 423.06 121 L 423 123.8 L 422 124.39 L 412 124.34 L 410.89 125 L 411 129.21 L 412 129.75 L 421 129.69 L 421.89 131 L 421.78 133 L 421 133.56 L 411.01 134 L 410.82 138 L 412 139.25 L 423 139.28 L 423.54 142 Z M 435 143.06 L 429 142.17 L 426 140.56 L 424.66 139 L 426 136.5 L 427 136.28 L 430 138.16 L 434 139.22 L 437 138.41 L 438.03 137 L 437 134.78 L 430 132.31 L 428 131.14 L 426.41 129 L 425.89 127 L 426.52 124 L 428.37 122 L 431 120.64 L 438 120.69 L 441 121.72 L 442.4 123 L 441 125.82 L 440 126.17 L 437 124.69 L 434 124.25 L 432 124.57 L 430.57 126 L 432 128.38 L 439 130.89 L 442.31 134 L 442.64 137 L 441.54 140 L 439 142.11 Z M 484 142.92 L 481 142.89 L 480 142.11 L 477.03 137 L 476 136.38 L 471 136.66 L 470.82 142 L 470 142.89 L 467 142.82 L 466.47 142 L 466.49 122 L 467 120.56 L 478 120.62 L 483.01 123 L 484.82 127 L 484.56 131 L 483.57 133 L 480.64 136 L 484.89 142 Z M 505 142.65 L 489 142.92 L 488.38 142 L 488.39 122 L 489 120.52 L 504 120.49 L 504.7 121 L 504.78 123 L 504 124.38 L 494 124.34 L 492.59 125 L 493 129.59 L 503 129.72 L 503.59 131 L 503 133.51 L 493 133.67 L 492.56 138 L 493 139.08 L 494 139.25 L 505 139.47 Z M 512 142.84 L 509 142.89 L 508.22 142 L 508.3 121 L 509 120.49 L 523 120.5 L 523.66 122 L 523 124.36 L 513 124.37 L 512.48 125 L 513 130.34 L 522 130.36 L 522.54 133 L 522 134.14 L 513 134.17 Z M 538 143.01 L 534 143.14 L 529 141.31 L 525.62 138 L 524.36 135 L 523.99 130 L 524.79 127 L 528.11 123 L 533 120.64 L 539 120.72 L 542 121.99 L 545.49 125 L 547.43 129 L 547.34 135 L 545.21 139 L 541 142.17 Z M 568 143.01 L 564 142.59 L 560.56 137 L 559 136.38 L 555 136.38 L 554.43 137 L 554.52 142 L 554 142.82 L 551 142.89 L 550.16 142 L 550.24 121 L 551 120.49 L 562 120.66 L 565 121.69 L 567.47 124 L 568.49 127 L 568.25 131 L 567.31 133 L 564.39 136 L 568.59 142 Z M 595 142.89 L 593 142.89 L 591.79 142 L 592 128.27 L 590.72 129 L 585.57 140 L 584 140.62 L 583 140.59 L 581.62 139 L 577.11 129 L 576 128.02 L 575.92 142 L 575 142.89 L 572 142.34 L 572 120.99 L 576 120.53 L 577.11 121 L 584 134.35 L 590.69 121 L 592 120.53 L 595.71 121 L 595.82 142 Z M 631 143.06 L 625 142.17 L 621 139.34 L 620.39 140 L 621.31 142 L 621 142.78 L 617 142.72 L 615.34 139 L 614 138.17 L 605 138.17 L 603.54 139 L 602 142.58 L 598 142.81 L 597.64 142 L 606.6 122 L 608 120.54 L 611 120.53 L 612 121.13 L 620 139.68 L 622 136.53 L 623 136.22 L 626 138.16 L 629 139.08 L 633 138.41 L 634.08 137 L 633.22 135 L 624 131.14 L 622.89 130 L 621.89 127 L 622.53 124 L 624.33 122 L 627 120.66 L 631 120.34 L 634 120.69 L 638 122.41 L 638.43 123 L 637 125.83 L 636 126.14 L 633 124.66 L 629 124.34 L 627 125.41 L 626.69 127 L 628 128.38 L 636 131.48 L 638.34 134 L 638.66 136 L 638.25 139 L 637 140.62 L 635 142.11 Z M 370.41 139 L 373 137.66 L 375.22 135 L 375.79 132 L 375.41 129 L 374 126.78 L 371 124.69 L 366 124.64 L 364 125.64 L 361.75 128 L 360.78 133 L 362 135.74 L 364.21 138 L 367 139.25 Z M 478.61 132 L 480.55 130 L 480.75 128 L 480 125.84 L 477 124.4 L 471 124.64 L 471 132.24 L 476 132.55 Z M 537.97 139 L 542.03 136 L 543.31 133 L 543.22 130 L 541.56 127 L 539 124.97 L 536 124.31 L 533 124.78 L 531.06 126 L 528.72 129 L 528.57 134 L 529.57 136 L 532 138.31 L 535 139.34 Z M 562.23 132 L 563.55 131 L 564.43 129 L 564.34 127 L 563 125.31 L 561 124.43 L 555 124.36 L 554.43 125 L 554.45 132 L 556 132.56 Z M 280.54 134 L 277 125.78 L 273.26 134 L 274 134.5 L 280 134.5 Z M 319.46 134 L 316 125.78 L 314.92 127 L 312.12 134 L 313 134.49 Z M 613.16 134 L 610 126.19 L 609 125.97 L 605.66 134 L 612 134.48 Z"/>
  </g>
</svg>
