<?xml version='1.0' encoding='utf-8'?>
<svg xmlns="http://www.w3.org/2000/svg" version="1.1" width="1796" height="406" viewBox="0 0 1796 406" role="img" aria-labelledby="title desc">
<title id="title">Eivitech — Instalaciones | Reformas</title><desc id="desc">Logo aziendale orizzontale Eivitech con sfondo trasparente.</desc><path d="M 50 109 A 148 85 0 0 1 346 109 L 50 109 Z" fill="#BE965D" /><path d="M0 0 C13.53 0 27.06 0 41 0 C41 47.85 41 95.7 41 145 C97.43 145 153.86 145 212 145 C212 130.81 212 116.62 212 102 C170.09 102 128.18 102 85 102 C85 92.1 85 82.2 85 72 C126.91 72 168.82 72 212 72 C212 58.14 212 44.28 212 30 C170.09 30 128.18 30 85 30 C85 20.1 85 10.2 85 0 C139.45 0 193.9 0 250 0 C251.188 3.565 251.135 6.789 251.12 10.498 C251.121 10.883 251.121 10.883 251.123 12.832 C251.124 15.421 251.119 18.01 251.114 20.598 C251.113 22.451 251.113 24.304 251.114 26.156 C251.114 31.193 251.108 36.23 251.101 41.267 C251.095 46.528 251.095 51.789 251.093 57.05 C251.09 67.016 251.082 76.982 251.072 86.948 C251.061 98.292 251.055 109.637 251.05 120.981 C251.04 144.321 251.022 167.66 251 191 C248.76 192.131 246.518 193.259 244.276 194.386 C243.645 194.705 243.015 195.023 242.365 195.352 C225.764 203.686 206.437 208.951 188 211 C187.5 211.061 187.5 211.061 184.973 211.371 C140.338 215.753 93.391 202.332 58.41 174.156 C23.91 145.565 -0.648 106.162 -5.617 60.984 C-7.466 39.948 -4.833 20.539 0 0 Z " fill="#B3B3B3" transform="translate(30,151)" />
<path d="M0 0 C0.845 0.002 1.69 0.004 2.56 0.006 C3.422 0.005 4.284 0.004 5.172 0.003 C6.998 0.003 8.823 0.004 10.649 0.009 C13.454 0.014 16.259 0.009 19.064 0.002 C20.833 0.003 22.603 0.004 24.372 0.006 C25.217 0.004 26.062 0.002 26.932 0 C32.851 0.024 32.851 0.024 33.966 1.139 C34.061 3.542 34.092 5.917 34.08 8.321 C34.08 9.072 34.08 9.823 34.08 10.597 C34.079 13.092 34.072 15.586 34.064 18.08 C34.062 19.805 34.061 21.53 34.06 23.255 C34.056 27.804 34.046 32.353 34.035 36.902 C34.025 41.54 34.02 46.178 34.015 50.817 C34.004 59.924 33.987 69.032 33.966 78.139 C34.785 78.109 35.604 78.079 36.448 78.048 C53.607 77.43 70.732 76.993 87.904 77.076 C89.786 77.081 91.668 77.086 93.55 77.09 C98.022 77.1 102.494 77.119 106.966 77.139 C106.962 76.204 106.957 75.269 106.953 74.305 C106.912 65.505 106.882 56.706 106.863 47.906 C106.852 43.382 106.838 38.858 106.815 34.333 C106.794 29.97 106.782 25.606 106.776 21.242 C106.773 19.575 106.765 17.907 106.755 16.24 C106.74 13.91 106.738 11.581 106.739 9.251 C106.732 8.557 106.725 7.863 106.717 7.147 C106.738 2.367 106.738 2.367 108.966 0.139 C111.907 -0.036 114.753 -0.092 117.693 -0.056 C118.124 -0.055 118.124 -0.055 120.307 -0.048 C123.069 -0.037 125.83 -0.011 128.591 0.014 C130.461 0.024 132.331 0.033 134.201 0.041 C138.789 0.063 143.378 0.098 147.966 0.139 C149.467 3.141 149.1 6.224 149.086 9.517 C149.087 9.901 149.087 9.901 149.089 11.848 C149.091 14.44 149.085 17.032 149.08 19.624 C149.079 21.476 149.08 23.329 149.08 25.181 C149.08 30.222 149.075 35.263 149.068 40.304 C149.061 45.568 149.061 50.832 149.06 56.096 C149.056 66.069 149.048 76.042 149.038 86.015 C149.027 97.367 149.022 108.718 149.017 120.07 C149.006 143.426 148.988 166.783 148.966 190.139 C135.106 190.139 121.246 190.139 106.966 190.139 C106.966 164.399 106.966 138.659 106.966 112.139 C82.876 112.139 58.786 112.139 33.966 112.139 C33.966 137.879 33.966 163.619 33.966 190.139 C20.436 190.139 6.906 190.139 -7.034 190.139 C-7.056 165.514 -7.075 140.888 -7.086 116.263 C-7.091 104.83 -7.098 93.397 -7.109 81.964 C-7.119 72.003 -7.126 62.041 -7.128 52.08 C-7.129 46.802 -7.132 41.525 -7.14 36.247 C-7.146 31.285 -7.148 26.324 -7.147 21.362 C-7.147 19.535 -7.149 17.709 -7.153 15.882 C-7.158 13.4 -7.157 10.917 -7.154 8.434 C-7.157 7.702 -7.16 6.969 -7.163 6.215 C-7.143 -0.24 -6.36 0.026 0 0 Z " fill="#BE965D" transform="translate(1623.0338134765625,90.86105346679688)" />
<path d="M0 0 C3.609 0.019 7.217 0.023 10.826 0.027 C14.303 0.031 17.78 0.041 21.257 0.053 C22.916 0.058 24.576 0.063 26.236 0.067 C28.533 0.074 30.83 0.087 33.126 0.103 C33.779 0.107 33.779 0.107 37.082 0.124 C39.991 0.264 39.991 0.264 40.991 1.264 C41.092 3.628 41.13 5.962 41.124 8.327 C41.124 9.033 41.125 9.74 41.126 10.468 C41.127 11.964 41.125 13.46 41.121 14.957 C41.116 17.255 41.121 19.552 41.127 21.85 C41.127 23.301 41.125 24.751 41.124 26.202 C41.126 26.893 41.128 27.585 41.13 28.298 C41.106 33.149 41.106 33.149 39.991 34.264 C37.656 34.368 35.35 34.408 33.015 34.406 C32.285 34.41 31.555 34.413 30.802 34.417 C29.209 34.424 27.616 34.429 26.022 34.433 C23.49 34.44 20.957 34.456 18.425 34.474 C11.222 34.527 4.018 34.575 -3.186 34.59 C-7.59 34.6 -11.993 34.63 -16.397 34.672 C-18.066 34.684 -19.736 34.689 -21.405 34.687 C-34.54 34.673 -47.617 35.459 -57.74 44.874 C-66.711 54.132 -68.883 66.023 -71.009 78.264 C-70.377 78.229 -70.377 78.229 -67.18 78.05 C-50.891 77.206 -34.625 77.109 -18.32 77.134 C-14.566 77.14 -10.811 77.136 -7.057 77.13 C19.313 77.096 19.313 77.096 32.042 77.71 C32.857 77.748 33.673 77.787 34.514 77.827 C39.859 78.132 39.859 78.132 40.991 79.264 C41.091 81.363 41.122 83.464 41.124 85.565 C41.125 86.852 41.126 88.139 41.127 89.465 C41.125 90.14 41.123 90.815 41.121 91.51 C41.116 93.558 41.121 95.605 41.127 97.653 C41.127 98.298 41.127 98.298 41.124 101.565 C41.122 102.753 41.121 103.94 41.12 105.164 C40.991 108.264 40.991 108.264 39.991 112.264 C3.361 112.264 -33.269 112.264 -71.009 112.264 C-67.382 139.47 -67.382 139.47 -56.13 148.827 C-45.571 155.994 -33.829 155.718 -21.568 155.741 C-19.791 155.755 -18.014 155.771 -16.237 155.788 C-11.59 155.83 -6.943 155.855 -2.296 155.876 C5.173 155.912 12.642 155.972 20.111 156.034 C22.719 156.053 25.328 156.065 27.937 156.075 C29.522 156.086 31.107 156.096 32.692 156.107 C33.421 156.108 34.15 156.109 34.9 156.11 C39.877 156.151 39.877 156.151 40.991 157.264 C41.079 159.713 41.106 162.132 41.088 164.581 C41.088 164.946 41.088 164.946 41.084 166.796 C41.078 169.14 41.066 171.483 41.053 173.827 C41.048 175.412 41.044 176.997 41.04 178.583 C41.029 182.477 41.011 186.37 40.991 190.264 C29.906 190.334 18.822 190.387 7.738 190.42 C2.589 190.435 -2.559 190.456 -7.707 190.491 C-12.687 190.523 -17.666 190.541 -22.646 190.549 C-24.535 190.554 -26.423 190.565 -28.311 190.581 C-52.474 190.782 -75.415 186.058 -93.626 168.842 C-112.774 148.125 -117.908 119.757 -117.103 92.368 C-115.895 65.132 -109.438 38.05 -89.013 18.733 C-63.806 -1.983 -30.705 -0.196 0 0 Z " fill="#BE965D" transform="translate(1343.00927734375,90.7357177734375)" />
<path d="M0 0 C1.595 -0.001 3.189 -0.002 4.784 -0.003 C8.098 -0.004 11.412 -0.002 14.725 0.002 C18.98 0.008 23.235 0.005 27.49 -0.001 C30.77 -0.005 34.049 -0.004 37.329 -0.001 C38.899 -0 40.47 -0.001 42.04 -0.003 C44.22 -0.006 46.401 -0.002 48.581 0.003 C49.201 0.004 49.201 0.004 52.34 0.006 C55.113 0.133 55.113 0.133 56.113 1.133 C56.202 3.581 56.229 6.001 56.211 8.449 C56.21 8.815 56.21 8.815 56.207 10.665 C56.201 13.008 56.188 15.352 56.176 17.695 C56.171 19.281 56.166 20.866 56.162 22.451 C56.151 26.345 56.134 30.239 56.113 34.133 C55.19 34.136 54.267 34.14 53.316 34.144 C44.563 34.182 35.811 34.239 27.059 34.317 C22.561 34.356 18.063 34.388 13.565 34.404 C9.214 34.419 4.863 34.454 0.513 34.501 C-1.137 34.516 -2.787 34.524 -4.437 34.525 C-19.259 34.54 -32.035 36.567 -43.594 46.617 C-51.39 54.591 -53.887 66.394 -53.887 77.133 C-35.737 77.298 -35.737 77.298 56.113 78.133 C56.113 89.353 56.113 100.573 56.113 112.133 C19.153 112.133 -17.807 112.133 -55.887 112.133 C-50.543 140.632 -50.543 140.632 -38.168 150.504 C-28.493 156.733 -15.648 155.472 -4.629 155.547 C-2.872 155.566 -1.115 155.585 0.642 155.606 C5.235 155.657 9.828 155.696 14.421 155.734 C19.949 155.781 25.477 155.842 31.004 155.902 C39.374 155.989 47.743 156.059 56.113 156.133 C56.113 167.353 56.113 178.573 56.113 190.133 C45.177 190.201 34.24 190.256 23.303 190.288 C18.223 190.304 13.143 190.325 8.063 190.359 C3.149 190.392 -1.766 190.41 -6.681 190.417 C-8.543 190.423 -10.406 190.434 -12.268 190.45 C-37.768 190.665 -58.685 185.897 -77.637 167.82 C-89.987 155.03 -96.247 139.492 -98.887 122.133 C-99.071 120.982 -99.255 119.831 -99.445 118.645 C-100.232 112.073 -100.131 105.43 -100.137 98.82 C-100.137 98.108 -100.138 97.396 -100.139 96.662 C-100.122 85.266 -99.576 74.246 -96.887 63.133 C-96.726 62.454 -96.565 61.776 -96.399 61.077 C-91.792 42.535 -82.495 24.816 -66.199 14.133 C-64.443 13.108 -62.673 12.105 -60.887 11.133 C-60.211 10.747 -59.536 10.362 -58.84 9.965 C-40.753 0.211 -20.025 -0.03 0 0 Z " fill="#B3B3B3" transform="translate(562.88671875,90.8671875)" />
<path d="M0 0 C1.142 -0.013 2.284 -0.026 3.46 -0.039 C4.547 -0.04 5.634 -0.042 6.754 -0.043 C7.728 -0.047 8.702 -0.051 9.705 -0.055 C12.906 0.229 14.701 0.45 17.438 2.188 C19.162 4.898 20.299 7.807 21.484 10.785 C21.853 11.67 22.221 12.555 22.601 13.466 C23.813 16.388 25 19.318 26.188 22.25 C27.028 24.289 27.871 26.327 28.715 28.365 C30.452 32.564 32.178 36.768 33.896 40.976 C36.27 46.786 38.669 52.587 41.078 58.383 C41.814 60.154 42.55 61.924 43.286 63.695 C43.642 64.553 43.999 65.411 44.366 66.295 C45.784 69.71 47.198 73.127 48.611 76.543 C55.771 93.847 63.048 111.097 70.562 128.25 C71.037 129.335 71.511 130.419 72 131.537 C72.217 132.032 72.217 132.032 73.32 134.535 C73.706 135.412 74.091 136.288 74.489 137.192 C75.438 139.187 75.438 139.187 76.438 140.188 C85.789 119.497 94.632 98.61 103.399 77.667 C111.437 58.473 119.486 39.285 127.75 20.188 C128.021 19.559 128.292 18.931 128.572 18.284 C129.334 16.522 130.098 14.761 130.863 13 C131.29 12.016 131.717 11.033 132.157 10.02 C132.58 9.085 133.002 8.15 133.438 7.188 C133.924 6.098 134.41 5.009 134.911 3.887 C136.438 1.188 136.438 1.188 139.438 0.188 C140.803 0.102 142.173 0.07 143.542 0.074 C143.952 0.074 143.952 0.074 146.028 0.074 C146.91 0.079 147.791 0.085 148.699 0.09 C149.152 0.091 149.152 0.091 151.444 0.094 C154.338 0.1 157.231 0.112 160.125 0.125 C162.087 0.13 164.048 0.135 166.01 0.139 C170.819 0.15 175.628 0.167 180.438 0.188 C179.758 4.962 177.913 9.015 175.965 13.379 C175.61 14.183 175.256 14.988 174.891 15.817 C173.724 18.463 172.549 21.107 171.375 23.75 C170.554 25.609 169.733 27.467 168.912 29.326 C166.428 34.95 163.934 40.569 161.438 46.188 C161.077 46.999 160.717 47.81 160.346 48.645 C157.392 55.296 154.436 61.945 151.476 68.593 C144.557 84.138 137.725 99.72 130.896 115.304 C128.165 121.534 125.426 127.76 122.684 133.984 C114.459 152.662 106.327 171.365 98.438 190.188 C84.247 190.188 70.058 190.188 55.438 190.188 C51.791 182.894 48.258 175.723 45.062 168.25 C44.648 167.29 44.234 166.33 43.807 165.342 C42.063 161.302 40.327 157.259 38.591 153.216 C29.584 132.24 20.414 111.35 11.014 90.546 C10.639 89.718 10.265 88.889 9.879 88.035 C9.506 87.21 9.133 86.385 8.749 85.535 C4.267 75.609 -0.148 65.655 -4.559 55.697 C-8.124 47.651 -11.716 39.618 -15.34 31.598 C-16.528 28.963 -17.715 26.328 -18.903 23.693 C-19.671 21.992 -20.441 20.291 -21.214 18.592 C-22.283 16.239 -23.345 13.884 -24.406 11.527 C-24.727 10.826 -25.048 10.125 -25.379 9.402 C-26.687 6.483 -27.562 4.425 -27.562 1.188 C-18.38 0.253 -9.224 0.051 0 0 Z " fill="#B3B3B3" transform="translate(760.5625,90.8125)" />
<path d="M0 0 C1.726 0.001 3.453 0.002 5.179 0.001 C8.763 0.003 12.348 0.011 15.932 0.025 C20.534 0.042 25.137 0.045 29.739 0.045 C33.288 0.045 36.837 0.05 40.386 0.058 C42.084 0.061 43.783 0.063 45.482 0.064 C47.84 0.066 50.197 0.074 52.554 0.085 C52.906 0.085 52.906 0.085 54.687 0.084 C59.491 0.116 59.491 0.116 60.605 1.23 C60.706 3.594 60.745 5.929 60.738 8.293 C60.739 8.999 60.74 9.706 60.741 10.434 C60.742 11.93 60.74 13.427 60.736 14.923 C60.73 17.221 60.736 19.518 60.742 21.816 C60.742 23.267 60.74 24.717 60.738 26.168 C60.74 26.86 60.742 27.551 60.744 28.264 C60.72 33.116 60.72 33.116 59.605 34.23 C57.338 34.339 55.067 34.377 52.798 34.388 C52.085 34.393 51.373 34.398 50.639 34.404 C49.085 34.414 47.531 34.423 45.977 34.43 C43.508 34.441 41.039 34.461 38.569 34.483 C31.546 34.544 24.523 34.598 17.499 34.632 C13.206 34.653 8.912 34.688 4.619 34.733 C2.99 34.747 1.362 34.755 -0.267 34.759 C-13.555 34.787 -26.652 35.465 -37.395 44.23 C-51.201 58.63 -52.473 82.343 -52.395 101.23 C-51.829 117.889 -49.899 135.286 -37.809 147.883 C-27.447 156.198 -14.036 155.834 -1.504 155.84 C0.295 155.855 2.094 155.872 3.893 155.89 C8.588 155.933 13.283 155.954 17.978 155.969 C22.785 155.988 27.592 156.03 32.398 156.07 C41.801 156.145 51.203 156.194 60.605 156.23 C60.605 167.45 60.605 178.67 60.605 190.23 C49.26 190.299 37.915 190.353 26.57 190.386 C21.301 190.401 16.031 190.423 10.762 190.457 C5.666 190.49 0.569 190.507 -4.527 190.515 C-6.46 190.521 -8.393 190.531 -10.326 190.548 C-34.174 190.741 -57.182 186.508 -75.082 169.355 C-85.103 159.25 -91.231 146.005 -94.395 132.23 C-94.543 131.623 -94.543 131.623 -95.293 128.551 C-101.605 99.555 -99.254 62.728 -84.52 36.543 C-81.008 31.317 -76.793 26.717 -72.395 22.23 C-71.729 21.529 -71.064 20.828 -70.379 20.105 C-51.939 2.088 -24.39 -0.113 0 0 Z " fill="#BE965D" transform="translate(1515.39453125,90.76953125)" />
<path d="M0 0 C0.669 -0.002 1.337 -0.005 2.026 -0.007 C4.277 -0.013 6.528 -0.012 8.779 -0.012 C10.388 -0.015 11.998 -0.018 13.607 -0.022 C17.987 -0.031 22.368 -0.033 26.748 -0.034 C30.401 -0.034 34.054 -0.038 37.707 -0.042 C46.325 -0.05 54.942 -0.052 63.56 -0.052 C72.456 -0.051 81.353 -0.062 90.25 -0.077 C97.881 -0.09 105.512 -0.096 113.144 -0.095 C117.705 -0.095 122.266 -0.098 126.826 -0.108 C131.116 -0.118 135.405 -0.118 139.695 -0.111 C141.27 -0.11 142.845 -0.112 144.421 -0.118 C146.57 -0.126 148.718 -0.121 150.867 -0.114 C151.468 -0.114 151.468 -0.114 154.512 -0.115 C157.435 0.123 159.099 0.601 161.56 2.134 C161.61 6.37 161.646 10.605 161.67 14.841 C161.68 16.283 161.694 17.724 161.711 19.165 C161.735 21.236 161.747 23.306 161.756 25.376 C161.766 26.622 161.777 27.869 161.787 29.153 C161.56 32.134 161.56 32.134 159.56 34.134 C138.77 34.134 117.98 34.134 96.56 34.134 C96.56 85.614 96.56 137.094 96.56 190.134 C82.7 190.134 68.84 190.134 54.56 190.134 C54.56 138.324 54.56 86.514 54.56 33.134 C54.23 33.299 54.23 33.299 52.56 34.134 C50.656 34.23 48.748 34.262 46.841 34.263 C46.242 34.265 46.242 34.265 43.211 34.273 C41.912 34.271 40.614 34.269 39.275 34.267 C37.935 34.267 36.595 34.268 35.255 34.269 C32.447 34.271 29.638 34.269 26.83 34.264 C23.222 34.258 19.615 34.262 16.008 34.268 C13.241 34.271 10.475 34.27 7.708 34.268 C5.729 34.267 3.75 34.27 1.77 34.273 C0.576 34.27 -0.619 34.266 -1.85 34.263 C-2.379 34.263 -2.379 34.263 -5.055 34.261 C-7.44 34.134 -7.44 34.134 -8.44 33.134 C-8.528 30.758 -8.555 28.412 -8.537 26.036 C-8.536 25.327 -8.534 24.618 -8.533 23.888 C-8.527 21.616 -8.515 19.343 -8.502 17.071 C-8.497 15.534 -8.493 13.997 -8.488 12.46 C-8.477 8.684 -8.46 4.909 -8.44 1.134 C-5.592 -0.29 -3.185 0.004 0 0 Z " fill="#BE965D" transform="translate(1043.4396667480469,90.86628723144531)" />
<path d="M0 0 C0.347 -0 0.347 -0 2.102 -0.003 C3.545 -0.004 4.987 -0.002 6.43 0.002 C8.648 0.008 10.866 0.002 13.084 -0.004 C14.493 -0.003 15.903 -0.002 17.312 0 C18.584 0.001 19.856 0.002 21.166 0.003 C24.059 0.133 24.059 0.133 25.059 1.133 C25.156 3.574 25.189 5.987 25.179 8.428 C25.18 9.201 25.181 9.974 25.181 10.77 C25.183 13.378 25.178 15.987 25.172 18.596 C25.172 20.458 25.172 22.32 25.173 24.183 C25.173 29.255 25.167 34.327 25.16 39.399 C25.154 44.693 25.153 49.988 25.152 55.282 C25.149 65.316 25.141 75.349 25.131 85.382 C25.119 96.802 25.114 108.221 25.109 119.64 C25.098 143.138 25.08 166.635 25.059 190.133 C10.869 190.133 -3.321 190.133 -17.941 190.133 C-17.941 127.763 -17.941 65.393 -17.941 1.133 C-11.77 0.516 -6.124 0.005 0 0 Z " fill="#B3B3B3" transform="translate(983.94140625,90.8671875)" />
<path d="M0 0 C0 62.7 0 125.4 0 190 C-13.86 190 -27.72 190 -42 190 C-42 127.63 -42 65.26 -42 1 C-28.715 -3.428 -14.004 0 0 0 Z " fill="#B3B3B3" transform="translate(706,91)" />
<path d="M0 0 C13.53 0 27.06 0 41 0 C42.555 4.665 43.698 9.072 44.562 13.875 C44.688 14.544 44.814 15.213 44.943 15.902 C52.522 57.086 42.243 100.56 19.397 135.447 C16.135 140.132 12.64 144.604 9 149 C8.261 149.909 7.523 150.818 6.762 151.754 C3.508 155.628 3.508 155.628 2 157 C1.34 157 0.68 157 0 157 C0 105.19 0 53.38 0 0 Z " fill="#BE965D" transform="translate(325,151)" />
<path d="M0 0 C6 0 6 0 7.836 1.766 C8.344 2.585 8.852 3.405 9.375 4.25 C9.954 5.154 10.533 6.057 11.129 6.988 C11.746 7.982 12.364 8.976 13 10 C14.432 12.149 15.87 14.295 17.312 16.438 C18.543 18.291 19.772 20.145 21 22 C21.66 22.99 22.32 23.98 23 25 C27.769 18.595 32.288 12.126 36.457 5.312 C37.844 3.234 39.073 1.583 41 0 C43.625 -0.25 43.625 -0.25 46 0 C47.587 1.587 47.127 3.212 47.129 5.412 C47.133 6.35 47.136 7.287 47.139 8.254 C47.137 9.273 47.135 10.293 47.133 11.344 C47.134 12.383 47.135 13.423 47.136 14.494 C47.136 16.696 47.135 18.899 47.13 21.101 C47.125 24.485 47.13 27.87 47.137 31.254 C47.136 33.388 47.135 35.522 47.133 37.656 C47.135 38.676 47.137 39.696 47.139 40.746 C47.137 41.215 47.137 41.215 47.129 43.588 C47.129 44.418 47.128 45.247 47.127 46.102 C47 48 47 48 46 49 C44.02 49 42.04 49 40 49 C39.835 43.225 39.835 43.225 39 14 C33.75 21.687 33.75 21.687 32.12 24.081 C29.544 27.84 26.91 31.487 24 35 C19.873 33.483 18.37 30.953 16.062 27.312 C13.151 22.757 10.154 18.415 7 14 C6.67 25.55 6.34 37.1 6 49 C4.02 49 2.04 49 0 49 C0 32.83 0 16.66 0 0 Z " fill="#B3B3B3" transform="translate(1605,325)" />
<path d="M0 0 C1.073 -0.021 2.146 -0.041 3.252 -0.062 C9.932 -0.095 16.754 -0.111 21.99 4.667 C25.087 8.207 26.341 10.945 26.688 15.625 C26.332 20.777 24.743 23.045 21 26.5 C18.622 28.124 17.179 28.668 14.438 29.25 C14.831 29.785 15.225 30.32 15.631 30.871 C17.405 33.285 19.171 35.705 20.938 38.125 C21.248 38.546 21.248 38.546 22.816 40.676 C23.11 41.079 23.11 41.079 24.594 43.117 C25.138 43.861 25.683 44.604 26.244 45.371 C27.438 47.25 27.438 47.25 27.438 49.25 C24.355 49.777 24.355 49.777 20.438 49.25 C17.73 46.783 15.79 43.84 13.75 40.812 C12.651 39.224 11.544 37.642 10.426 36.066 C9.947 35.359 9.468 34.652 8.974 33.924 C7.157 31.944 6.065 31.609 3.438 31.25 C1.855 31.185 0.271 31.164 -1.312 31.188 C-1.712 31.192 -1.712 31.192 -3.734 31.215 C-4.338 31.226 -4.941 31.238 -5.562 31.25 C-5.551 32.466 -5.539 33.681 -5.527 34.934 C-5.518 36.518 -5.509 38.103 -5.5 39.688 C-5.492 40.49 -5.483 41.292 -5.475 42.119 C-5.466 44.163 -5.51 46.207 -5.562 48.25 C-6.562 49.25 -6.562 49.25 -9.625 49.312 C-10.594 49.292 -11.564 49.271 -12.562 49.25 C-12.588 42.432 -12.605 35.615 -12.617 28.797 C-12.622 26.476 -12.629 24.155 -12.638 21.833 C-12.65 18.505 -12.656 15.176 -12.66 11.848 C-12.665 10.803 -12.67 9.758 -12.676 8.682 C-12.676 7.721 -12.676 6.76 -12.676 5.77 C-12.678 4.919 -12.68 4.069 -12.683 3.193 C-12.36 -2.019 -3.894 0.018 0 0 Z M-5.562 6.25 C-5.759 8.291 -5.945 10.333 -6.125 12.375 C-6.229 13.512 -6.334 14.649 -6.441 15.82 C-6.559 19.139 -6.228 22.006 -5.562 25.25 C-3.041 25.332 -0.522 25.391 2 25.438 C2.352 25.45 2.352 25.45 4.135 25.514 C9.318 25.585 12.865 24.749 17.438 22.25 C19.779 18.489 20.593 16.407 20 12 C17.934 8.363 16.336 7.747 12.438 6.25 C9.299 5.909 6.214 5.964 3.062 6.062 C2.647 6.069 2.647 6.069 0.543 6.104 C-1.492 6.139 -3.528 6.192 -5.562 6.25 Z " fill="#B3B3B3" transform="translate(1555.5625,324.75)" />
<path d="M0 0 C1.98 0 3.96 0 6 0 C8.111 2.111 9.679 3.969 11.375 6.375 C12.335 7.668 13.296 8.961 14.258 10.254 C14.723 10.893 15.189 11.533 15.669 12.192 C17.459 14.624 19.347 16.969 21.25 19.312 C24.4 23.234 27.491 27.198 30.555 31.188 C32 33 32 33 34 35 C34.33 23.45 34.66 11.9 35 0 C36.98 0 38.96 0 41 0 C41 16.17 41 32.34 41 49 C36 49 36 49 34.445 47.801 C34.01 47.239 33.574 46.677 33.125 46.098 C32.621 45.462 32.117 44.827 31.597 44.173 C31.07 43.476 30.543 42.78 30 42.062 C29.443 41.352 28.887 40.641 28.313 39.909 C26.526 37.618 24.762 35.311 23 33 C21.79 31.43 20.579 29.861 19.367 28.293 C15.207 22.891 11.082 17.462 7 12 C7.012 13.079 7.023 14.158 7.035 15.27 C7.116 26.548 6.699 37.744 6 49 C4.02 49 2.04 49 0 49 C0 32.83 0 16.66 0 0 Z " fill="#B3B3B3" transform="translate(1017,325)" />
<path d="M0 0 C6 0 6 0 7.76 1.398 C8.232 2.051 8.705 2.703 9.191 3.375 C9.738 4.106 10.284 4.837 10.847 5.59 C11.413 6.385 11.979 7.181 12.562 8 C13.785 9.646 15.009 11.29 16.234 12.934 C16.854 13.774 17.473 14.614 18.111 15.48 C21.071 19.429 24.184 23.247 27.312 27.062 C27.869 27.746 28.426 28.43 29 29.135 C32.836 33.836 32.836 33.836 34 35 C34.33 23.45 34.66 11.9 35 0 C36.98 0 38.96 0 41 0 C41 16.17 41 32.34 41 49 C39.35 49 37.7 49 36 49 C33.879 46.83 32.162 44.797 30.375 42.375 C29.858 41.701 29.341 41.028 28.808 40.334 C27.73 38.929 26.658 37.519 25.592 36.104 C23.145 32.87 20.633 29.687 18.125 26.5 C17.698 25.95 17.27 25.4 16.83 24.833 C13.662 20.772 10.362 16.923 7 13 C6.67 24.88 6.34 36.76 6 49 C4.02 49 2.04 49 0 49 C0 32.83 0 16.66 0 0 Z " fill="#B3B3B3" transform="translate(499,325)" />
<path d="M0 0 C24 0 24 0 33 3 C36.917 7.015 38.17 9.789 38.312 15.312 C38.265 18.932 38.159 20.701 36.438 23.938 C33.473 26.446 30.39 28.106 27 30 C27.687 30.892 28.374 31.784 29.082 32.703 C29.992 33.885 30.902 35.068 31.812 36.25 C32.264 36.837 32.716 37.423 33.182 38.027 C34.061 39.17 34.939 40.314 35.815 41.459 C36.806 42.748 37.813 44.024 38.824 45.297 C40 47 40 47 40 49 C37.096 49.605 35.779 49.851 33 49 C29.229 45.395 26.209 41.107 23.617 36.59 C22.211 34.271 21.146 32.674 19 31 C14.528 30.02 10.625 30 6 30 C6 36.27 6 42.54 6 49 C4.02 49 2.04 49 0 49 C0 32.83 0 16.66 0 0 Z M6 6 C6 12.27 6 18.54 6 25 C24.535 25.579 24.535 25.579 31 21 C32.569 17.861 32.352 15.461 32 12 C29.459 8.84 27.854 7.285 24 6 C22.592 5.92 21.18 5.892 19.77 5.902 C19.408 5.904 19.408 5.904 17.577 5.91 C17.121 5.914 17.121 5.914 14.812 5.938 C11.904 5.958 8.996 5.979 6 6 Z " fill="#B3B3B3" transform="translate(1300,325)" />
<path d="M0 0 C5.824 3.343 9.034 7.874 11.938 13.812 C13.928 23.966 12.101 31.012 6.938 39.75 C1.757 44.658 -5.001 47.721 -12.152 48.125 C-19.622 47.716 -25.404 45.145 -30.742 39.926 C-36.514 33.369 -37.147 27.328 -36.879 18.633 C-36.003 11.426 -33.065 7.018 -27.438 2.562 C-19.265 -3.221 -9.19 -4.136 0 0 Z M-24.262 7.555 C-28.88 12.587 -31.026 17.838 -30.812 24.781 C-29.945 29.911 -27.67 34.889 -23.863 38.488 C-18.912 41.662 -13.061 42.628 -7.297 41.629 C-1.886 39.967 1.753 36.903 4.562 32 C6.933 25.561 6.907 20.393 4.562 14 C1.934 9.356 -0.612 6.044 -5.699 4.164 C-12.705 2.607 -18.584 2.716 -24.262 7.555 Z " fill="#B3B3B3" transform="translate(981.4375,327)" />
<path d="M0 0 C6.476 3.916 11.175 8.643 13.188 16.051 C14.651 24.035 13.868 30.44 9.625 37.438 C5.16 42.894 -0.404 46.719 -7.25 48.375 C-14.666 48.871 -21.645 47.256 -27.375 42.438 C-33.068 36.69 -35.655 32.019 -35.812 23.75 C-35.683 15.997 -33.897 10.369 -28.695 4.562 C-21.225 -2.343 -9.391 -4.274 0 0 Z M-25.625 10.75 C-29.243 16.306 -29.815 21.499 -28.98 27.938 C-27.737 33.071 -25.11 36.901 -21.188 40.375 C-14.804 42.786 -8.455 43.31 -2.129 40.523 C2.031 37.948 4.782 33.923 6.625 29.438 C7.409 23.055 7.38 16.751 4 11.129 C0.58 6.922 -2.969 4.794 -8.352 3.996 C-16.103 3.698 -20.169 5.143 -25.625 10.75 Z " fill="#B3B3B3" transform="translate(1507.375,326.5625)" />
<path d="M0 0 C1.476 0 2.952 0.006 4.427 0.016 C5.203 0.017 5.978 0.019 6.777 0.02 C9.264 0.026 11.75 0.038 14.236 0.051 C15.918 0.056 17.599 0.061 19.281 0.065 C23.412 0.076 27.543 0.093 31.674 0.114 C31.674 2.094 31.674 4.074 31.674 6.114 C22.104 6.114 12.534 6.114 2.674 6.114 C2.674 11.394 2.674 16.674 2.674 22.114 C11.254 22.114 19.834 22.114 28.674 22.114 C28.674 23.764 28.674 25.414 28.674 27.114 C26.116 28.392 24.306 28.227 21.447 28.211 C20.416 28.208 19.385 28.205 18.322 28.201 C17.782 28.197 17.782 28.197 15.049 28.176 C14.505 28.174 14.505 28.174 11.752 28.162 C9.059 28.151 6.366 28.133 3.674 28.114 C3.344 33.064 3.014 38.014 2.674 43.114 C12.244 43.114 21.814 43.114 31.674 43.114 C31.674 45.094 31.674 47.074 31.674 49.114 C26.707 49.138 21.741 49.156 16.775 49.168 C15.084 49.173 13.393 49.18 11.703 49.189 C9.278 49.201 6.853 49.207 4.427 49.211 C4.047 49.214 4.047 49.214 2.123 49.227 C0.306 49.227 -1.511 49.175 -3.326 49.114 C-4.913 47.527 -4.454 45.901 -4.456 43.701 C-4.457 43.233 -4.457 43.233 -4.465 40.86 C-4.463 39.84 -4.461 38.82 -4.459 37.77 C-4.46 36.73 -4.461 35.691 -4.462 34.62 C-4.463 32.417 -4.461 30.215 -4.457 28.012 C-4.451 24.628 -4.457 21.244 -4.463 17.86 C-4.462 15.726 -4.461 13.591 -4.459 11.457 C-4.461 10.438 -4.463 9.418 -4.465 8.367 C-4.462 7.429 -4.459 6.492 -4.456 5.526 C-4.455 4.696 -4.454 3.866 -4.453 3.011 C-4.229 -0.338 -3.451 0.118 0 0 Z " fill="#B3B3B3" transform="translate(1087.326416015625,324.886474609375)" />
<path d="M0 0 C11.55 0 23.1 0 35 0 C35 1.98 35 3.96 35 6 C25.43 6 15.86 6 6 6 C6 11.28 6 16.56 6 22 C14.58 22 23.16 22 32 22 C32 23.65 32 25.3 32 27 C29.518 28.241 27.836 28.129 25.062 28.133 C24.085 28.134 23.108 28.135 22.102 28.137 C21.078 28.133 20.055 28.129 19 28.125 C17.976 28.129 16.953 28.133 15.898 28.137 C14.921 28.135 13.944 28.134 12.938 28.133 C12.039 28.132 11.141 28.131 10.215 28.129 C8 28 8 28 6 27 C6 32.28 6 37.56 6 43 C15.57 43 25.14 43 35 43 C35 44.98 35 46.96 35 49 C23.45 49 11.9 49 0 49 C0 32.83 0 16.66 0 0 Z " fill="#B3B3B3" transform="translate(1361,325)" />
<path d="M0 0 C1.98 0 3.96 0 6 0 C8.671 5.747 11.34 11.494 14.008 17.242 C14.915 19.197 15.823 21.152 16.731 23.106 C18.038 25.918 19.344 28.73 20.648 31.543 C20.851 31.978 20.851 31.978 21.877 34.182 C27 45.238 27 45.238 27 49 C25.02 49 23.04 49 21 49 C19.02 45.04 17.04 41.08 15 37 C13.363 37.012 11.726 37.023 10.039 37.035 C7.901 37.045 5.763 37.054 3.625 37.062 C2.545 37.071 1.465 37.079 0.352 37.088 C-0.68 37.091 -1.711 37.094 -2.773 37.098 C-3.727 37.103 -4.68 37.108 -5.662 37.114 C-8 37 -8 37 -10 36 C-10.268 36.846 -10.536 37.691 -10.812 38.562 C-12.048 42.139 -13.477 45.539 -15 49 C-17.31 49 -19.62 49 -22 49 C-19.324 39.832 -15.099 31.408 -11 22.812 C-10.268 21.266 -9.536 19.72 -8.805 18.174 C-5.922 12.089 -3.031 6.013 0 0 Z M2 9 C0.494 12.122 -1.004 15.248 -2.5 18.375 C-2.929 19.264 -3.359 20.154 -3.801 21.07 C-4.207 21.921 -4.613 22.772 -5.031 23.648 C-5.408 24.434 -5.785 25.219 -6.174 26.029 C-7 28 -7 28 -7 30 C-0.73 30 5.54 30 12 30 C10.094 24.281 8.504 19.641 5.812 14.438 C5.283 13.405 4.753 12.372 4.207 11.309 C4.008 10.928 4.008 10.928 3 9 C2.67 9 2.34 9 2 9 Z " fill="#B3B3B3" transform="translate(806,325)" />
<path d="M0 0 C1.98 0 3.96 0 6 0 C8.03 4.299 10.056 8.6 12.079 12.903 C12.765 14.36 13.451 15.816 14.139 17.272 C17.676 24.765 21.18 32.271 24.492 39.867 C24.978 40.979 25.464 42.092 25.964 43.238 C27 46 27 46 27 49 C25.02 49 23.04 49 21 49 C20.159 47.4 19.328 45.795 18.5 44.188 C18.036 43.294 17.572 42.401 17.094 41.48 C16 39 16 39 16 36 C7.42 36.33 -1.16 36.66 -10 37 C-11.98 40.96 -13.96 44.92 -16 49 C-17.98 49 -19.96 49 -22 49 C-20.729 45.048 -19.309 41.24 -17.645 37.438 C-17.19 36.399 -16.736 35.361 -16.267 34.292 C-15.787 33.205 -15.307 32.119 -14.812 31 C-14.321 29.886 -13.83 28.772 -13.324 27.624 C-9.774 19.623 -6.041 11.764 -2 4 C-1.331 2.668 -0.663 1.335 0 0 Z M2 9 C0.491 12.1 -1.006 15.205 -2.5 18.312 C-2.929 19.194 -3.359 20.075 -3.801 20.982 C-4.207 21.83 -4.613 22.678 -5.031 23.551 C-5.408 24.331 -5.785 25.111 -6.174 25.915 C-7 28 -7 28 -7 31 C-3.7 30.835 -3.7 30.835 13 30 C11.549 26.684 10.09 23.372 8.625 20.062 C8.213 19.117 7.8 18.171 7.375 17.197 C6.975 16.298 6.576 15.399 6.164 14.473 C5.797 13.64 5.431 12.807 5.053 11.949 C4 10 4 10 2 9 Z " fill="#B3B3B3" transform="translate(1693,325)" />
<path d="M0 0 C1.98 0 3.96 0 6 0 C9.979 7.73 13.559 15.608 17.062 23.562 C17.579 24.73 18.095 25.897 18.627 27.1 C19.629 29.365 20.628 31.631 21.625 33.899 C22.491 35.851 23.368 37.798 24.261 39.738 C24.627 40.535 24.994 41.331 25.371 42.152 C25.689 42.832 26.006 43.511 26.334 44.211 C27 46 27 46 27 49 C25.02 49 23.04 49 21 49 C20.162 47.21 19.33 45.418 18.5 43.625 C18.036 42.627 17.572 41.63 17.094 40.602 C16 38 16 38 16 36 C7.42 36 -1.16 36 -10 36 C-10.99 38.97 -11.98 41.94 -13 45 C-13.66 46.32 -14.32 47.64 -15 49 C-16.98 49 -18.96 49 -21 49 C-20.43 44.371 -19.163 40.809 -17.125 36.625 C-16.497 35.32 -15.871 34.014 -15.246 32.707 C-14.895 31.977 -14.545 31.247 -14.183 30.495 C-11.795 25.46 -9.5 20.382 -7.188 15.312 C-6.244 13.246 -5.3 11.179 -4.355 9.113 C-3.95 8.224 -3.544 7.335 -3.126 6.419 C-2.12 4.259 -1.078 2.125 0 0 Z M2 9 C0.466 12.286 -1.05 15.58 -2.562 18.875 C-3 19.812 -3.438 20.749 -3.889 21.715 C-4.298 22.611 -4.707 23.507 -5.129 24.43 C-5.511 25.257 -5.893 26.085 -6.287 26.937 C-6.523 27.618 -6.758 28.299 -7 29 C-6.67 29.66 -6.34 30.32 -6 31 C-4.521 31.028 -3.042 31.047 -1.562 31.062 C-1.151 31.068 -1.151 31.068 0.934 31.098 C4.97 30.969 8.986 30.446 13 30 C10.03 23.07 7.06 16.14 4 9 C3.34 9 2.68 9 2 9 Z " fill="#B3B3B3" transform="translate(687,325)" />
<path d="M0 0 C1.43 0.81 2.853 1.634 4.25 2.5 C3.438 4.438 3.438 4.438 2.25 6.5 C1.26 6.83 0.27 7.16 -0.75 7.5 C-1.163 7.263 -1.163 7.263 -3.25 6.062 C-8.113 3.892 -12.5 3.772 -17.75 4.5 C-20.5 6.125 -20.5 6.125 -21.75 8.5 C-21.875 11.562 -21.875 11.562 -20.75 14.5 C-15.51 17.622 -9.967 18.826 -4.09 20.242 C-0.276 21.678 1.588 23.462 4.25 26.5 C4.58 26.83 4.91 27.16 5.25 27.5 C5.767 32.547 6.086 37.014 3.562 41.5 C-2.211 46.493 -7.14 47.663 -14.75 47.5 C-21.387 46.435 -25.959 44.165 -30.75 39.5 C-29.76 38.18 -28.77 36.86 -27.75 35.5 C-24.244 36.149 -21.785 37.679 -18.75 39.5 C-14.174 41.178 -9.423 41.118 -4.875 39.438 C-1.905 36.73 -1.971 34.406 -1.75 30.5 C-6.006 26.762 -10.861 26.002 -16.242 24.66 C-20.72 23.179 -24.132 20.956 -27.625 17.812 C-29.454 14.052 -29.602 10.579 -28.75 6.5 C-22.723 -4.148 -10.307 -5.175 0 0 Z " fill="#B3B3B3" transform="translate(592.75,327.5)" />
<path d="M0 0 C1.262 0.644 2.517 1.303 3.75 2 C3.75 3.32 3.75 4.64 3.75 6 C2.062 7.188 2.062 7.188 -0.25 8 C-0.931 7.546 -1.611 7.092 -2.312 6.625 C-6.742 4.175 -11.283 4.43 -16.25 5 C-20.003 6.488 -20.003 6.488 -21.125 8.812 C-21.306 11.975 -21.033 13.326 -19.25 16 C-15.571 17.807 -11.565 18.665 -7.609 19.672 C-2.044 21.171 1.079 22.501 4.75 27 C5.08 27.33 5.41 27.66 5.75 28 C6.342 32.964 6.909 38.296 3.812 42.5 C-1.067 46.483 -5.088 48.093 -11.441 47.906 C-18.575 47.047 -23.499 45.285 -29.25 41 C-28.938 39.125 -28.938 39.125 -28.25 37 C-27.26 36.34 -26.27 35.68 -25.25 35 C-24.528 35.619 -23.806 36.238 -23.062 36.875 C-17.926 40.756 -13.56 41.637 -7.25 41 C-4.312 40.125 -4.312 40.125 -2.25 39 C-1.106 36.713 -1.147 35.407 -1.188 32.875 C-1.208 31.596 -1.229 30.317 -1.25 29 C-2.312 28.769 -3.374 28.539 -4.469 28.301 C-13.242 26.31 -20.536 24.419 -27.25 18.125 C-28.758 14.92 -28.612 12.5 -28.25 9 C-26.506 4.318 -24.38 1.788 -20.25 -1 C-13.607 -3.214 -6.373 -2.863 0 0 Z " fill="#B3B3B3" transform="translate(1766.25,327)" />
<path d="M0 0 C1.411 0.808 2.813 1.631 4.188 2.5 C3.375 4.438 3.375 4.438 2.188 6.5 C-0.812 7.5 -0.812 7.5 -3.625 6.125 C-4.677 5.589 -5.729 5.053 -6.812 4.5 C-11.719 3.143 -15.051 3.76 -19.812 5.5 C-21.812 7.5 -21.812 7.5 -22 10.875 C-20.812 14.5 -20.812 14.5 -19.086 15.742 C-15.048 17.583 -10.895 18.766 -6.625 19.938 C-1.937 21.267 0.75 23.062 4.188 26.5 C5.926 29.977 5.642 33.699 5.188 37.5 C2.805 42.449 0.308 44.592 -4.812 46.5 C-12.051 48.31 -19.274 47.104 -25.812 43.562 C-28.812 41.5 -28.812 41.5 -30.812 38.5 C-29.493 37.18 -28.172 35.86 -26.812 34.5 C-26.547 34.675 -26.547 34.675 -25.203 35.559 C-24.497 36.014 -23.79 36.469 -23.062 36.938 C-22.714 37.164 -22.714 37.164 -20.953 38.309 C-15.294 41.458 -8.966 40.992 -2.812 39.5 C-2.536 38.067 -2.292 36.628 -2.062 35.188 C-1.923 34.387 -1.784 33.586 -1.641 32.762 C-1.812 30.5 -1.812 30.5 -3.305 28.855 C-7.242 26.727 -11.49 25.704 -15.793 24.57 C-20.875 23.116 -23.992 21.18 -27.812 17.5 C-29.937 13.25 -29.169 8.59 -27.75 4.25 C-21.268 -4.95 -9.388 -4.681 0 0 Z " fill="#B3B3B3" transform="translate(1169.8125,327.5)" />
<path d="M0 0 C2.134 1.645 2.936 3.006 3.926 5.484 C3.266 5.484 2.606 5.484 1.926 5.484 C1.596 6.474 1.266 7.464 0.926 8.484 C-1.291 7.417 -3.31 6.323 -5.348 4.934 C-10.028 2.446 -14.905 2.939 -20.074 3.484 C-23.699 4.984 -23.699 4.984 -26.074 6.484 C-26.734 6.484 -27.394 6.484 -28.074 6.484 C-28.758 8.144 -29.42 9.813 -30.074 11.484 C-30.445 12.413 -30.817 13.341 -31.199 14.297 C-33.073 21.122 -32.511 27.298 -29.074 33.484 C-25.244 37.418 -21.246 39.39 -15.715 39.555 C-9.365 39.228 -5.901 37.577 -1.074 33.484 C0.246 34.144 1.566 34.804 2.926 35.484 C2.926 36.804 2.926 38.124 2.926 39.484 C1.281 40.934 1.281 40.934 -0.887 42.172 C-1.594 42.588 -2.302 43.005 -3.031 43.434 C-7.212 45.584 -10.736 45.679 -15.387 45.734 C-16.682 45.76 -17.978 45.786 -19.312 45.812 C-25.308 45.289 -29.75 42.581 -34.074 38.484 C-38.819 31.299 -41.293 24.05 -39.68 15.359 C-37.751 8.191 -33.422 2.386 -27.23 -1.746 C-18.384 -5.738 -8.32 -4.412 0 0 Z " fill="#B3B3B3" transform="translate(889.07421875,328.515625)" />
<path d="M0 0 C11.55 0 23.1 0 35 0 C35 1.98 35 3.96 35 6 C25.76 6 16.52 6 7 6 C6.67 11.61 6.34 17.22 6 23 C14.58 23 23.16 23 32 23 C32 24.65 32 26.3 32 28 C27.875 28.33 27.875 28.33 7 30 C6.67 36.27 6.34 42.54 6 49 C4.02 49 2.04 49 0 49 C0 32.83 0 16.66 0 0 Z " fill="#B3B3B3" transform="translate(1418,325)" />
<path d="M0 0 C1.56 0 3.121 0.006 4.681 0.016 C5.091 0.017 5.091 0.017 7.166 0.02 C9.795 0.026 12.424 0.038 15.052 0.051 C16.83 0.056 18.608 0.061 20.386 0.065 C24.754 0.076 29.122 0.093 33.49 0.114 C33.49 2.094 33.49 4.074 33.49 6.114 C28.21 6.114 22.93 6.114 17.49 6.114 C17.49 20.304 17.49 34.494 17.49 49.114 C15.51 49.114 13.53 49.114 11.49 49.114 C11.49 34.924 11.49 20.734 11.49 6.114 C6.21 6.114 0.93 6.114 -4.51 6.114 C-4.51 0.146 -4.51 0.146 0 0 Z " fill="#B3B3B3" transform="translate(620.510009765625,324.886474609375)" />
<path d="M0 0 C1.65 0 3.3 0 5 0 C5.33 13.86 5.66 27.72 6 42 C10.29 42.165 10.29 42.165 32 43 C32 44.98 32 46.96 32 49 C21.11 49 10.22 49 -1 49 C-1.023 42.182 -1.043 35.365 -1.055 28.547 C-1.06 26.226 -1.067 23.905 -1.075 21.583 C-1.088 18.255 -1.093 14.926 -1.098 11.598 C-1.103 10.553 -1.108 9.508 -1.113 8.432 C-1.113 7.471 -1.113 6.51 -1.114 5.52 C-1.116 4.669 -1.118 3.819 -1.12 2.943 C-1 1 -1 1 0 0 Z " fill="#B3B3B3" transform="translate(735,325)" />
<path d="M0 0 C1.65 0 3.3 0 5 0 C5 20.79 5 41.58 5 63 C3.35 63 1.7 63 0 63 C0 42.21 0 21.42 0 0 Z " fill="#B3B3B3" transform="translate(1234,319)" />
<path d="M0 0 C1.98 0 3.96 0 6 0 C6 16.17 6 32.34 6 49 C4.02 49 2.04 49 0 49 C0 32.83 0 16.66 0 0 Z " fill="#B3B3B3" transform="translate(915,325)" />
<path d="M0 0 C1.65 0 3.3 0 5 0 C5 16.17 5 32.34 5 49 C3.02 49 1.04 49 -1 49 C-1.025 42.182 -1.043 35.365 -1.055 28.547 C-1.06 26.226 -1.067 23.905 -1.075 21.583 C-1.088 18.255 -1.093 14.926 -1.098 11.598 C-1.103 10.553 -1.108 9.508 -1.113 8.432 C-1.113 7.471 -1.113 6.51 -1.114 5.52 C-1.116 4.669 -1.118 3.819 -1.12 2.943 C-1 1 -1 1 0 0 Z " fill="#B3B3B3" transform="translate(468,325)" />
</svg>